<?xml version="1.0" encoding="UTF-8" standalone="no"?>
<!DOCTYPE svg PUBLIC "-//W3C//DTD SVG 1.1//EN" "http://www.w3.org/Graphics/SVG/1.1/DTD/svg11.dtd">
<svg xmlns="http://www.w3.org/2000/svg" version="1.1" viewBox="0.00 0.00 347.00 402.00">
<g stroke-width="2.00" fill="none" stroke-linecap="butt">
<path stroke="#e7ecef" vector-effect="non-scaling-stroke" d="
  M 46.39 241.30
  Q 53.50 236.34 59.26 229.86
  C 60.86 228.06 62.07 224.47 64.53 223.81"
/>
<path stroke="#e7ecef" vector-effect="non-scaling-stroke" d="
  M 67.80 220.96
  Q 78.49 210.20 89.07 199.82
  Q 95.44 193.58 101.67 187.19
  Q 111.61 177.00 121.99 167.25
  Q 126.66 162.86 130.82 156.18"
/>
<path stroke="#f7c192" vector-effect="non-scaling-stroke" d="
  M 130.82 156.18
  Q 143.24 149.78 143.26 136.27
  Q 143.29 117.48 143.13 60.49"
/>
<path stroke="#ecb587" vector-effect="non-scaling-stroke" d="
  M 130.82 156.18
  Q 125.59 157.38 122.63 157.41
  Q 97.17 157.61 45.57 157.13"
/>
<path stroke="#e7ecef" vector-effect="non-scaling-stroke" d="
  M 257.86 109.80
  A 1.58 1.58 0.0 0 0 256.28 108.22
  L 170.64 108.22
  A 1.58 1.58 0.0 0 0 169.06 109.80
  L 169.06 116.22
  A 1.58 1.58 0.0 0 0 170.64 117.80
  L 256.28 117.80
  A 1.58 1.58 0.0 0 0 257.86 116.22
  L 257.86 109.80"
/>
<path stroke="#e7ecef" vector-effect="non-scaling-stroke" d="
  M 257.85 148.43
  A 1.21 1.21 0.0 0 0 256.64 147.22
  L 170.24 147.22
  A 1.21 1.21 0.0 0 0 169.03 148.43
  L 169.03 155.51
  A 1.21 1.21 0.0 0 0 170.24 156.72
  L 256.64 156.72
  A 1.21 1.21 0.0 0 0 257.85 155.51
  L 257.85 148.43"
/>
<path stroke="#e7ecef" vector-effect="non-scaling-stroke" d="
  M 257.95 187.85
  A 1.93 1.93 0.0 0 0 256.02 185.92
  L 112.42 185.92
  A 1.93 1.93 0.0 0 0 110.49 187.85
  L 110.49 194.01
  A 1.93 1.93 0.0 0 0 112.42 195.94
  L 256.02 195.94
  A 1.93 1.93 0.0 0 0 257.95 194.01
  L 257.95 187.85"
/>
<path stroke="#e7ecef" vector-effect="non-scaling-stroke" d="
  M 257.89 226.71
  A 1.72 1.72 0.0 0 0 256.17 224.99
  L 112.45 224.99
  A 1.72 1.72 0.0 0 0 110.73 226.71
  L 110.73 232.87
  A 1.72 1.72 0.0 0 0 112.45 234.59
  L 256.17 234.59
  A 1.72 1.72 0.0 0 0 257.89 232.87
  L 257.89 226.71"
/>
<path stroke="#e7ecef" vector-effect="non-scaling-stroke" d="
  M 257.88 265.52
  A 1.52 1.52 0.0 0 0 256.36 264.00
  L 112.12 264.00
  A 1.52 1.52 0.0 0 0 110.60 265.52
  L 110.60 272.00
  A 1.52 1.52 0.0 0 0 112.12 273.52
  L 256.36 273.52
  A 1.52 1.52 0.0 0 0 257.88 272.00
  L 257.88 265.52"
/>
<path stroke="#e7ecef" vector-effect="non-scaling-stroke" d="
  M 111.88 303.00
  A 1.47 1.47 0.0 0 0 110.41 304.56
  L 110.83 311.13
  A 1.47 1.47 0.0 0 0 112.30 312.51
  L 256.44 312.53
  A 1.47 1.47 0.0 0 0 257.91 311.01
  L 257.70 304.42
  A 1.47 1.47 0.0 0 0 256.24 303.00
  L 111.88 303.00"
/>
</g>
<path fill="#f2f7fa" d="
  M 46.39 241.30
  Q 53.50 236.34 59.26 229.86
  C 60.86 228.06 62.07 224.47 64.53 223.81
  C 60.33 230.42 63.99 238.78 71.51 239.86
  C 79.12 240.95 83.47 234.53 82.68 227.45
  Q 82.18 222.99 77.22 220.82
  Q 72.55 218.78 67.80 220.96
  Q 78.49 210.20 89.07 199.82
  Q 95.44 193.58 101.67 187.19
  Q 111.61 177.00 121.99 167.25
  Q 126.66 162.86 130.82 156.18
  Q 143.24 149.78 143.26 136.27
  Q 143.29 117.48 143.13 60.49
  Q 145.25 59.75 148.25 59.74
  Q 217.40 59.36 269.75 59.78
  C 275.29 59.82 282.06 61.28 286.37 65.26
  C 291.54 70.04 292.38 74.69 292.45 81.48
  Q 292.54 91.27 292.54 100.76
  Q 292.54 218.64 292.46 332.94
  Q 292.46 335.50 291.98 338.36
  C 289.80 351.43 279.93 355.70 268.00 355.68
  Q 163.66 355.56 90.25 355.71
  Q 81.03 355.72 73.00 355.63
  C 62.05 355.50 55.19 355.33 48.92 347.16
  C 45.31 342.46 45.56 335.55 45.63 329.83
  C 45.85 312.30 45.95 294.62 45.74 276.99
  Q 45.56 261.62 45.82 246.25
  Q 45.88 243.06 46.39 241.30
  Z
  M 257.86 109.80
  A 1.58 1.58 0.0 0 0 256.28 108.22
  L 170.64 108.22
  A 1.58 1.58 0.0 0 0 169.06 109.80
  L 169.06 116.22
  A 1.58 1.58 0.0 0 0 170.64 117.80
  L 256.28 117.80
  A 1.58 1.58 0.0 0 0 257.86 116.22
  L 257.86 109.80
  Z
  M 257.85 148.43
  A 1.21 1.21 0.0 0 0 256.64 147.22
  L 170.24 147.22
  A 1.21 1.21 0.0 0 0 169.03 148.43
  L 169.03 155.51
  A 1.21 1.21 0.0 0 0 170.24 156.72
  L 256.64 156.72
  A 1.21 1.21 0.0 0 0 257.85 155.51
  L 257.85 148.43
  Z
  M 257.95 187.85
  A 1.93 1.93 0.0 0 0 256.02 185.92
  L 112.42 185.92
  A 1.93 1.93 0.0 0 0 110.49 187.85
  L 110.49 194.01
  A 1.93 1.93 0.0 0 0 112.42 195.94
  L 256.02 195.94
  A 1.93 1.93 0.0 0 0 257.95 194.01
  L 257.95 187.85
  Z
  M 257.89 226.71
  A 1.72 1.72 0.0 0 0 256.17 224.99
  L 112.45 224.99
  A 1.72 1.72 0.0 0 0 110.73 226.71
  L 110.73 232.87
  A 1.72 1.72 0.0 0 0 112.45 234.59
  L 256.17 234.59
  A 1.72 1.72 0.0 0 0 257.89 232.87
  L 257.89 226.71
  Z
  M 257.88 265.52
  A 1.52 1.52 0.0 0 0 256.36 264.00
  L 112.12 264.00
  A 1.52 1.52 0.0 0 0 110.60 265.52
  L 110.60 272.00
  A 1.52 1.52 0.0 0 0 112.12 273.52
  L 256.36 273.52
  A 1.52 1.52 0.0 0 0 257.88 272.00
  L 257.88 265.52
  Z
  M 82.7684 276.9846
  A 8.95 8.95 0.0 0 0 74.3650 267.5196
  L 72.6081 267.4152
  A 8.95 8.95 0.0 0 0 63.1431 275.8187
  L 63.0316 277.6954
  A 8.95 8.95 0.0 0 0 71.4350 287.1604
  L 73.1919 287.2648
  A 8.95 8.95 0.0 0 0 82.6569 278.8613
  L 82.7684 276.9846
  Z
  M 111.88 303.00
  A 1.47 1.47 0.0 0 0 110.41 304.56
  L 110.83 311.13
  A 1.47 1.47 0.0 0 0 112.30 312.51
  L 256.44 312.53
  A 1.47 1.47 0.0 0 0 257.91 311.01
  L 257.70 304.42
  A 1.47 1.47 0.0 0 0 256.24 303.00
  L 111.88 303.00
  Z
  M 82.92 325.11
  A 10.03 10.03 0.0 0 0 72.89 315.08
  A 10.03 10.03 0.0 0 0 62.86 325.11
  A 10.03 10.03 0.0 0 0 72.89 335.14
  A 10.03 10.03 0.0 0 0 82.92 325.11
  Z"
/>
<path fill="#fc8a2a" d="
  M 143.13 60.49
  Q 143.29 117.48 143.26 136.27
  Q 143.24 149.78 130.82 156.18
  Q 125.59 157.38 122.63 157.41
  Q 97.17 157.61 45.57 157.13
  Q 58.32 144.11 70.32 132.48
  Q 78.24 124.81 84.54 118.39
  Q 106.61 95.88 129.21 73.89
  Q 129.29 73.82 135.48 67.32
  Q 138.94 63.69 143.13 60.49
  Z"
/>
<rect fill="#dbe0e3" x="169.06" y="108.22" width="88.80" height="9.58" rx="1.58"/>
<rect fill="#dbe0e3" x="169.03" y="147.22" width="88.82" height="9.50" rx="1.21"/>
<path fill="#dbe0e3" d="
  M 130.82 156.18
  Q 126.66 162.86 121.99 167.25
  Q 111.61 177.00 101.67 187.19
  Q 95.44 193.58 89.07 199.82
  Q 78.49 210.20 67.80 220.96
  L 64.53 223.81
  C 62.07 224.47 60.86 228.06 59.26 229.86
  Q 53.50 236.34 46.39 241.30
  Q 46.11 228.33 45.77 215.99
  C 45.29 198.46 45.55 180.62 45.07 162.97
  Q 45.03 161.59 45.34 160.07
  Q 45.77 157.98 45.57 157.13
  Q 97.17 157.61 122.63 157.41
  Q 125.59 157.38 130.82 156.18
  Z
  M 82.2840 180.7058
  A 8.16 8.16 0.0 0 0 74.2677 172.4047
  L 71.6081 172.3583
  A 8.16 8.16 0.0 0 0 63.3069 180.3746
  L 63.2560 183.2942
  A 8.16 8.16 0.0 0 0 71.2723 191.5953
  L 73.9319 191.6417
  A 8.16 8.16 0.0 0 0 82.2331 183.6254
  L 82.2840 180.7058
  Z"
/>
<rect fill="#dbe0e3" x="110.49" y="185.92" width="147.46" height="10.02" rx="1.93"/>
<rect fill="#dbe0e3" x="110.73" y="224.99" width="147.16" height="9.60" rx="1.72"/>
<rect fill="#dbe0e3" x="110.60" y="264.00" width="147.28" height="9.52" rx="1.52"/>
<path fill="#dbe0e3" d="
  M 111.88 303.00
  L 256.24 303.00
  A 1.47 1.47 0.0 0 1 257.70 304.42
  L 257.91 311.01
  A 1.47 1.47 0.0 0 1 256.44 312.53
  L 112.30 312.51
  A 1.47 1.47 0.0 0 1 110.83 311.13
  L 110.41 304.56
  A 1.47 1.47 0.0 0 1 111.88 303.00
  Z"
/>
</svg>
