<?xml version="1.0" encoding="UTF-8" standalone="no"?>
<!DOCTYPE svg PUBLIC "-//W3C//DTD SVG 1.1//EN" "http://www.w3.org/Graphics/SVG/1.1/DTD/svg11.dtd">
<svg xmlns="http://www.w3.org/2000/svg" version="1.1" viewBox="0.00 0.00 382.00 391.00">
<g stroke-width="2.00" fill="none" stroke-linecap="butt">
<path stroke="#f4812a" vector-effect="non-scaling-stroke" d="
  M 321.46 191.68
  Q 305.60 206.74 302.05 211.03
  Q 300.14 213.33 298.35 215.11
  C 290.53 222.84 283.15 230.93 275.59 238.67
  Q 267.95 246.47 259.86 254.85
  C 258.05 256.73 256.50 258.73 254.55 260.48
  Q 252.65 262.19 250.55 264.62
  Q 248.54 266.95 246.41 268.70"
/>
<path stroke="#e37523" vector-effect="non-scaling-stroke" d="
  M 246.41 268.70
  L 187.50 265.88"
/>
<path stroke="#ea7824" vector-effect="non-scaling-stroke" d="
  M 187.50 265.88
  Q 185.66 264.90 183.96 263.53
  Q 141.73 229.49 99.49 195.48"
/>
<path stroke="#f4812a" vector-effect="non-scaling-stroke" d="
  M 99.49 195.48
  Q 99.31 195.16 99.24 194.83
  Q 99.18 194.57 99.29 194.32
  Q 109.81 169.83 120.02 146.30
  Q 125.28 134.16 131.85 120.03
  Q 132.88 117.82 133.02 116.25
  Q 133.72 108.22 133.89 100.25
  Q 134.22 84.58 134.53 68.92
  Q 134.54 68.50 134.99 58.60
  Q 135.22 53.53 135.01 48.27"
/>
<path stroke="#e26f24" vector-effect="non-scaling-stroke" d="
  M 99.49 195.48
  L 99.01 195.58
  Q 98.56 195.67 98.38 196.09
  L 49.58 302.97"
/>
<path stroke="#db6b23" vector-effect="non-scaling-stroke" d="
  M 290.50 341.52
  L 246.41 268.70"
/>
<path stroke="#d1631c" vector-effect="non-scaling-stroke" d="
  M 187.50 265.88
  Q 180.35 278.72 176.47 286.71
  C 173.41 293.01 170.18 298.82 167.33 304.87
  C 164.50 310.86 161.12 316.59 158.23 322.52
  Q 155.39 328.33 152.34 333.95
  C 151.20 336.05 150.61 338.26 149.17 340.19
  A 1.75 1.73 5.6 0 1 148.48 340.75
  Q 148.25 340.85 147.99 340.86
  Q 147.32 340.88 147.68 341.45
  Q 147.91 341.81 147.71 341.89"
/>
</g>
<path fill="#fc8a2a" d="
  M 321.46 191.68
  Q 305.60 206.74 302.05 211.03
  Q 300.14 213.33 298.35 215.11
  C 290.53 222.84 283.15 230.93 275.59 238.67
  Q 267.95 246.47 259.86 254.85
  C 258.05 256.73 256.50 258.73 254.55 260.48
  Q 252.65 262.19 250.55 264.62
  Q 248.54 266.95 246.41 268.70
  L 187.50 265.88
  Q 185.66 264.90 183.96 263.53
  Q 141.73 229.49 99.49 195.48
  Q 99.31 195.16 99.24 194.83
  Q 99.18 194.57 99.29 194.32
  Q 109.81 169.83 120.02 146.30
  Q 125.28 134.16 131.85 120.03
  Q 132.88 117.82 133.02 116.25
  Q 133.72 108.22 133.89 100.25
  Q 134.22 84.58 134.53 68.92
  Q 134.54 68.50 134.99 58.60
  Q 135.22 53.53 135.01 48.27
  Q 146.48 40.10 160.22 36.47
  Q 171.00 33.61 180.07 34.42
  C 199.95 36.18 218.26 47.00 231.96 61.53
  C 238.31 68.27 244.00 75.73 249.43 83.68
  Q 268.41 111.43 286.24 138.10
  Q 290.13 143.93 297.58 154.61
  Q 309.03 171.02 319.59 187.98
  Q 320.14 188.87 321.46 191.68
  Z"
/>
<path fill="#ec772a" d="
  M 135.01 48.27
  Q 135.22 53.53 134.99 58.60
  Q 134.54 68.50 134.53 68.92
  Q 134.22 84.58 133.89 100.25
  Q 133.72 108.22 133.02 116.25
  Q 132.88 117.82 131.85 120.03
  Q 125.28 134.16 120.02 146.30
  Q 109.81 169.83 99.29 194.32
  Q 99.18 194.57 99.24 194.83
  Q 99.31 195.16 99.49 195.48
  L 99.01 195.58
  Q 98.56 195.67 98.38 196.09
  L 49.58 302.97
  Q 47.61 297.35 46.00 289.00
  Q 38.98 252.73 49.60 218.01
  C 56.13 196.64 64.08 175.37 71.06 154.54
  C 75.65 140.83 81.63 125.66 87.64 112.18
  Q 99.08 86.56 115.24 66.50
  Q 122.87 57.03 135.01 48.27
  Z"
/>
<path fill="#ec772a" d="
  M 321.46 191.68
  Q 325.70 199.85 327.22 204.49
  Q 339.54 242.24 332.95 281.86
  C 329.87 300.34 322.71 321.64 308.75 334.22
  Q 301.79 340.50 290.50 341.52
  L 246.41 268.70
  Q 248.54 266.95 250.55 264.62
  Q 252.65 262.19 254.55 260.48
  C 256.50 258.73 258.05 256.73 259.86 254.85
  Q 267.95 246.47 275.59 238.67
  C 283.15 230.93 290.53 222.84 298.35 215.11
  Q 300.14 213.33 302.05 211.03
  Q 305.60 206.74 321.46 191.68
  Z"
/>
<path fill="#d8661d" d="
  M 99.49 195.48
  Q 141.73 229.49 183.96 263.53
  Q 185.66 264.90 187.50 265.88
  Q 180.35 278.72 176.47 286.71
  C 173.41 293.01 170.18 298.82 167.33 304.87
  C 164.50 310.86 161.12 316.59 158.23 322.52
  Q 155.39 328.33 152.34 333.95
  C 151.20 336.05 150.61 338.26 149.17 340.19
  A 1.75 1.73 5.6 0 1 148.48 340.75
  Q 148.25 340.85 147.99 340.86
  Q 147.32 340.88 147.68 341.45
  Q 147.91 341.81 147.71 341.89
  Q 115.97 342.09 84.25 341.14
  C 80.49 341.03 76.96 340.22 73.74 338.30
  Q 64.92 333.03 59.84 325.64
  Q 52.93 315.58 49.58 302.97
  L 98.38 196.09
  Q 98.56 195.67 99.01 195.58
  L 99.49 195.48
  Z"
/>
<path fill="#c95f1b" d="
  M 187.50 265.88
  L 246.41 268.70
  L 290.50 341.52
  L 147.71 341.89
  Q 147.91 341.81 147.68 341.45
  Q 147.32 340.88 147.99 340.86
  Q 148.25 340.85 148.48 340.75
  A 1.75 1.73 5.6 0 0 149.17 340.19
  C 150.61 338.26 151.20 336.05 152.34 333.95
  Q 155.39 328.33 158.23 322.52
  C 161.12 316.59 164.50 310.86 167.33 304.87
  C 170.18 298.82 173.41 293.01 176.47 286.71
  Q 180.35 278.72 187.50 265.88
  Z"
/>
</svg>
