<?xml version="1.0" encoding="UTF-8" standalone="no"?>
<!DOCTYPE svg PUBLIC "-//W3C//DTD SVG 1.1//EN" "http://www.w3.org/Graphics/SVG/1.1/DTD/svg11.dtd">
<svg xmlns="http://www.w3.org/2000/svg" version="1.1" viewBox="0.00 0.00 372.00 418.00">
<g stroke-width="2.00" fill="none" stroke-linecap="butt">
<path stroke="#dfe4e8" vector-effect="non-scaling-stroke" d="
  M 210.58 222.33
  Q 209.26 222.09 207.69 223.69
  Q 201.25 230.26 183.39 248.02"
/>
<path stroke="#f8c192" vector-effect="non-scaling-stroke" d="
  M 150.95 278.04
  Q 150.80 278.34 150.33 277.48
  Q 141.75 261.59 124.86 254.08"
/>
<path stroke="#dfe4e8" vector-effect="non-scaling-stroke" d="
  M 222.67 235.17
  Q 220.69 238.25 219.36 239.61
  Q 210.90 248.26 195.77 262.70"
/>
<path stroke="#f8c192" vector-effect="non-scaling-stroke" d="
  M 238.14 254.21
  Q 232.74 257.11 231.14 258.13
  Q 218.38 266.24 212.04 279.89
  Q 211.91 280.18 211.69 280.29
  Q 211.42 280.43 211.13 280.46"
/>
</g>
<path fill="#f2f7fa" d="
  M 210.58 222.33
  Q 209.26 222.09 207.69 223.69
  Q 201.25 230.26 183.39 248.02
  Q 180.54 250.17 179.46 251.23
  Q 168.65 261.83 158.02 272.61
  C 155.97 274.69 153.35 276.15 150.95 278.04
  Q 150.80 278.34 150.33 277.48
  Q 141.75 261.59 124.86 254.08
  Q 128.58 249.16 132.22 244.62
  Q 135.78 240.19 139.75 235.97
  Q 145.66 229.70 151.73 222.27
  C 152.85 220.91 152.85 219.44 151.51 218.16
  Q 117.87 185.94 85.28 152.98
  Q 77.30 144.91 73.33 139.14
  Q 61.45 121.84 59.64 100.79
  C 58.46 86.94 61.77 72.54 68.41 59.71
  Q 68.67 59.21 69.12 58.86
  A 1.73 1.73 0.0 0 1 71.47 59.09
  C 81.66 70.60 91.39 82.60 101.39 94.22
  Q 112.93 107.62 123.82 120.34
  Q 151.49 152.64 177.57 182.67
  Q 178.62 183.87 180.09 185.22
  Q 181.74 186.73 183.29 185.11
  C 192.71 175.25 200.90 164.59 209.80 154.39
  Q 216.69 146.49 222.78 139.19
  Q 241.47 116.78 260.72 94.84
  C 269.30 85.06 278.00 74.59 286.91 64.35
  C 288.36 62.69 289.82 60.49 291.60 58.68
  Q 292.84 57.42 294.13 58.64
  Q 294.76 59.23 295.17 60.05
  Q 304.14 77.68 303.79 97.08
  C 303.70 102.21 302.61 107.48 301.44 112.46
  Q 296.61 133.02 280.93 149.45
  Q 273.09 157.67 266.63 164.13
  Q 241.20 189.54 216.33 214.08
  C 213.93 216.46 211.37 218.84 210.58 222.33
  Z"
/>
<path fill="#ccd1d5" d="
  M 210.58 222.33
  L 222.67 235.17
  Q 220.69 238.25 219.36 239.61
  Q 210.90 248.26 195.77 262.70
  C 192.25 258.95 188.26 255.36 185.69 251.34
  Q 184.59 249.62 183.39 248.02
  Q 201.25 230.26 207.69 223.69
  Q 209.26 222.09 210.58 222.33
  Z"
/>
<path fill="#f2f7fa" d="
  M 222.67 235.17
  Q 231.07 244.09 238.14 254.21
  Q 232.74 257.11 231.14 258.13
  Q 218.38 266.24 212.04 279.89
  Q 211.91 280.18 211.69 280.29
  Q 211.42 280.43 211.13 280.46
  Q 211.69 278.47 210.79 277.75
  Q 201.89 270.61 195.77 262.70
  Q 210.90 248.26 219.36 239.61
  Q 220.69 238.25 222.67 235.17
  Z"
/>
<path fill="#fd8a29" d="
  M 124.86 254.08
  Q 141.75 261.59 150.33 277.48
  Q 150.80 278.34 150.95 278.04
  Q 154.74 288.17 155.62 297.51
  C 158.47 327.63 135.73 351.47 106.02 352.34
  Q 95.28 352.65 86.73 349.47
  C 69.58 343.09 57.35 328.87 54.30 310.86
  Q 51.52 294.48 59.25 278.60
  Q 68.31 259.98 86.81 253.14
  C 96.10 249.70 106.52 249.69 116.02 251.51
  Q 120.58 252.39 124.86 254.08
  Z
  M 103.8134 331.1255
  A 29.60 29.25 91.0 0 0 133.5755 302.0405
  A 29.60 29.25 91.0 0 0 104.8466 271.9345
  A 29.60 29.25 91.0 0 0 75.0845 301.0195
  A 29.60 29.25 91.0 0 0 103.8134 331.1255
  Z"
/>
<path fill="#fd8a29" d="
  M 211.13 280.46
  Q 211.42 280.43 211.69 280.29
  Q 211.91 280.18 212.04 279.89
  Q 218.38 266.24 231.14 258.13
  Q 232.74 257.11 238.14 254.21
  Q 250.53 249.46 264.01 250.30
  C 268.93 250.61 274.50 251.89 279.11 254.11
  Q 301.13 264.68 307.84 287.30
  Q 309.92 294.34 309.68 303.86
  Q 309.47 311.99 306.72 319.12
  C 299.00 339.15 281.83 351.60 260.35 352.36
  C 228.27 353.51 203.32 326.15 208.22 293.49
  Q 209.21 286.89 211.13 280.46
  Z
  M 259.8758 331.1101
  A 29.63 29.27 87.9 0 0 288.0403 300.4274
  A 29.63 29.27 87.9 0 0 257.7042 271.8899
  A 29.63 29.27 87.9 0 0 229.5397 302.5726
  A 29.63 29.27 87.9 0 0 259.8758 331.1101
  Z"
/>
</svg>
